# xmcd
#
# Track frame offsets: 
#        150
#        13555
#        27103
#        40987
#        55302
#        67072
#
# Disc length: 1036 seconds
#
# Revision: 0
# Processed by: cddbd v1.5.2PL0 Copyright (c) Steve Scherf et al.
# Submitted via: ExactAudioCopy v1.3
#
DISCID=4a040a06
DTITLE=The Railers - The Geraldine Session
DYEAR=2014
DGENRE=Country
TTITLE0=Ray Bans
TTITLE1=Kiss Me Like That
TTITLE2=Wide Open
TTITLE3=Death Came Knockin'
TTITLE4=The Irish Song
TTITLE5=The Hands
EXTD=
EXTT0=
EXTT1=
EXTT2=
EXTT3=
EXTT4=
EXTT5=
PLAYORDER=
